<svg id="Layer_1" data-name="Layer 1" xmlns="http://www.w3.org/2000/svg" viewBox="0 0 139.68 139.68"><defs><style>.cls-1{fill:#6ce5df;fill-rule:evenodd;}</style></defs><path class="cls-1" d="M23.31,56.85l-3.2,3.2a10.91,10.91,0,1,0,5.64,12.88l4.72-4.72a14.7,14.7,0,0,1,.09,1.63,15.3,15.3,0,1,1-7.25-13Zm0-54.57-3.2,3.21a10.91,10.91,0,1,0,5.64,12.88l4.72-4.72a14.57,14.57,0,0,1,.09,1.63,15.28,15.28,0,1,1-7.25-13ZM17.46,34.8V50.32a19.86,19.86,0,0,0-4.36,0V34.8a19.86,19.86,0,0,0,4.36,0Zm0,54.57v15.51a19.86,19.86,0,0,0-4.36,0V89.37c.71.07,1.44.12,2.18.12s1.46,0,2.18-.12Zm-2.18,50.31a15.28,15.28,0,1,1,15.28-15.27A15.28,15.28,0,0,1,15.28,139.68Zm0-4.36A10.92,10.92,0,1,0,4.37,124.41,10.92,10.92,0,0,0,15.28,135.32Zm-1-114.73L8.09,14.42a2.18,2.18,0,0,1,3.09-3.09L15.81,16,29.7,2.07a2.18,2.18,0,1,1,3.08,3.09L17.35,20.59A2.19,2.19,0,0,1,14.26,20.59Zm0,54.57L8.09,69a2.18,2.18,0,1,1,3.09-3.08l4.63,4.63L29.7,56.64a2.18,2.18,0,1,1,3.08,3.08L17.35,75.16A2.19,2.19,0,0,1,14.26,75.16ZM50.2,8.73h87.3a2.19,2.19,0,0,1,0,4.37H50.2a2.19,2.19,0,0,1,0-4.37Zm0,54.56h87.3a2.19,2.19,0,0,1,0,4.37H50.2a2.19,2.19,0,0,1,0-4.37Zm0,54.57h87.3a2.18,2.18,0,0,1,0,4.36H50.2a2.18,2.18,0,1,1,0-4.36Zm0-100.4h52.38a2.19,2.19,0,0,1,0,4.37H50.2a2.19,2.19,0,0,1,0-4.37ZM50.2,72h52.38a2.19,2.19,0,0,1,0,4.37H50.2a2.19,2.19,0,0,1,0-4.37Zm0,54.57h52.38a2.18,2.18,0,0,1,0,4.36H50.2a2.18,2.18,0,0,1,0-4.36Z"/></svg>