<svg id="Layer_1" data-name="Layer 1" xmlns="http://www.w3.org/2000/svg" viewBox="0 0 153.2 136.8"><defs><style>.cls-1{fill:#6ce5df;}</style></defs><path class="cls-1" d="M108.13,136.8a1.43,1.43,0,0,1-1.42-1.43V114.26a9.27,9.27,0,0,1,6.89-9.21l.39-.1.21-.34a1.52,1.52,0,0,1,.44-.47l4.06-3.57a1.52,1.52,0,0,1,.4-.34l1-.58-.72-.91A30.2,30.2,0,0,1,113,80.8,17.8,17.8,0,0,1,130.76,63a17.88,17.88,0,0,1,17.86,17.83,20.81,20.81,0,0,1-.75,5.44,32.24,32.24,0,0,1-6.82,12.86l-1.43,1.65h1.88l3.7,3.25a1.85,1.85,0,0,1,.52.54l.21.34.38.1a9.26,9.26,0,0,1,6.89,9.19v6.66a1.43,1.43,0,1,1-2.86,0v-6.56a6.28,6.28,0,0,0-5-6.47l-.66-.14-5.42,8a3,3,0,0,1-2.24,1.76h-.31a2.93,2.93,0,0,1-2.27-1.16l-.13-.2-2.43-4.15a4.37,4.37,0,0,1,.13-5.38l.14-.14L134.9,104l-3.16.35q-.6.06-1.2.06a13.21,13.21,0,0,1-2.49-.24l-3.69-.73,3.47,3a4.35,4.35,0,0,1,.31,5.44l-2.47,4.23c0,.07-.09.13-.13.19a3,3,0,0,1-2.3,1.1h-.47a2.88,2.88,0,0,1-2-1.61l-5.5-8.11-.65.14a6.28,6.28,0,0,0-5,6.51v21.06A1.43,1.43,0,0,1,108.13,136.8Zm25.94-28.29-.09.22a1.57,1.57,0,0,0,0,1.13l.06.16.1.12a1.33,1.33,0,0,1,.14.19l2.4,4.09,5.83-8.74-1.19-.79a1.58,1.58,0,0,1-.31-.26l-1.1-1.27Zm-15.18-3.83a1.47,1.47,0,0,1-.29.23l-1.2.8,5.94,8.69,2.41-4.09s.23-.29.23-.29l.06-.16a1.57,1.57,0,0,0,0-1.13l-.1-.23L120,103.39Zm3.18-7.15a11.28,11.28,0,0,0,8.45,4,9.62,9.62,0,0,0,6.25-2.24,26.7,26.7,0,0,0,7.91-12.61,7.44,7.44,0,0,0-1.81-6.23c-2-1.87-5-2.14-6.58-2.14-.39,0-.75,0-1,0l-.22,0-.18.11a21.15,21.15,0,0,1-10.27,2.91,13.13,13.13,0,0,1-4-.57l-.27-.09-.28.07a5,5,0,0,0-3.42,3l-.07.15V84a11.18,11.18,0,0,0,.18,2.71l0,.29a26.67,26.67,0,0,0,4.1,8.85h-.17Zm8.74-31.65a14.91,14.91,0,0,0-10.43,4.22,14.76,14.76,0,0,0-4.16,7.51l-.48,2.21,2-1.14a5.26,5.26,0,0,1,2.68-.73,5.82,5.82,0,0,1,.92.08l.21.07a9.37,9.37,0,0,0,3.18.47,18.77,18.77,0,0,0,9.3-2.78,1.64,1.64,0,0,1,.51-.18,15.61,15.61,0,0,1,1.84-.1,13.79,13.79,0,0,1,7.25,1.84l2.35,1.49-.87-2.65a15.2,15.2,0,0,0-3.47-5.73A14.87,14.87,0,0,0,130.81,65.88Zm-76,70.92a1.43,1.43,0,0,1-1.43-1.43V114.26a9.28,9.28,0,0,1,6.9-9.21l.39-.1.21-.35a1.42,1.42,0,0,1,.43-.45l4.07-3.58a2.18,2.18,0,0,1,.41-.35l1-.57L66,98.74A30.07,30.07,0,0,1,59.6,80.8,17.78,17.78,0,0,1,77.38,63.05,17.88,17.88,0,0,1,95.25,80.87a20.52,20.52,0,0,1-.74,5.45A32.28,32.28,0,0,1,87.7,99.11l-.67.77.79.65,4,3.54a1.77,1.77,0,0,1,.51.53l.21.35.39.1a9.27,9.27,0,0,1,6.9,9.19v6.58a1.43,1.43,0,0,1-2.86,0v-6.56a6.28,6.28,0,0,0-5-6.46l-.66-.14-5.46,8.06a3,3,0,0,1-2.24,1.74H83.3A2.93,2.93,0,0,1,81,116.29h0s0-.06,0-.11l-2.49-4.28a4.38,4.38,0,0,1,.13-5.4l.13-.14,3-2.54-3.42.47a7.4,7.4,0,0,1-1.05.06H77.2a14.11,14.11,0,0,1-2.49-.25L71,103.39l3.45,3a.75.75,0,0,1,.15.16,4.34,4.34,0,0,1,.16,5.33l-2.48,4.23a.83.83,0,0,1-.13.18,2.93,2.93,0,0,1-2.29,1.1h-.49a2.86,2.86,0,0,1-2-1.6l-5.5-8.11-.65.14a6.31,6.31,0,0,0-5,6.51v21.06A1.43,1.43,0,0,1,54.78,136.8Zm25.84-28.3-.09.23a1.57,1.57,0,0,0,0,1.13l.1.25.21.17a1.37,1.37,0,0,1,.17.17L82.53,113l.81,1.36,5.8-8.73L88,104.88a1.67,1.67,0,0,1-.28-.25l-1.11-1.26Zm-15.09-3.83a1.61,1.61,0,0,1-.28.24l-1.2.8L70,114.4l2.42-4.09.1-.12.18-.33a1.55,1.55,0,0,0,0-1.12l-.09-.24-6-5.09ZM63.42,87A26.83,26.83,0,0,0,68.79,97.5a11.21,11.21,0,0,0,8.44,4,9.79,9.79,0,0,0,6.29-2.23v0a26.76,26.76,0,0,0,7.88-12.59,7.5,7.5,0,0,0-1.81-6.23c-2-1.86-5-2.13-6.61-2.13-.38,0-.72,0-1,0l-.21,0-.19.11a21.15,21.15,0,0,1-10.27,2.91,13.13,13.13,0,0,1-4-.57L67,80.7l-.28.06a5.09,5.09,0,0,0-3.44,2.92l-.07.16V84a10.26,10.26,0,0,0,.18,2.71Zm14-21.13A14.87,14.87,0,0,0,67,70.1a14.69,14.69,0,0,0-4.21,7.46l-.5,2.22,2-1.14A5.42,5.42,0,0,1,67,77.92a5.5,5.5,0,0,1,.91.08l.23.07a9.07,9.07,0,0,0,3.16.47,18.88,18.88,0,0,0,9.3-2.78,1.28,1.28,0,0,1,.51-.17A14.5,14.5,0,0,1,83,75.48a13.61,13.61,0,0,1,7.21,1.84l2.37,1.51-.88-2.66A15,15,0,0,0,77.43,65.89Zm-76,70.91A1.43,1.43,0,0,1,0,135.37V114.26a9.28,9.28,0,0,1,6.9-9.21l.39-.1.21-.35a1.42,1.42,0,0,1,.43-.45l4.58-4.05-.61-.74A30.06,30.06,0,0,1,5,80.81a17.83,17.83,0,0,1,35.66.06A20.52,20.52,0,0,1,40,86.32a32.25,32.25,0,0,1-6.34,12.27l-.83,1,1.18.54a1.48,1.48,0,0,1,.47.35l4.06,3.59a1.82,1.82,0,0,1,.52.53l.21.35.39.1a9.27,9.27,0,0,1,6.9,9.19v6.58a1.43,1.43,0,0,1-2.86,0v-6.56a6.29,6.29,0,0,0-5-6.46l-.66-.14-5.46,8.06a3,3,0,0,1-2.24,1.74H30a3,3,0,0,1-2.27-1.16l-.06-.13-2.47-4.24a4.47,4.47,0,0,1-.88-2.56h-2a4.31,4.31,0,0,1-.83,2.5L19,116.09l-.12.19a3,3,0,0,1-2.3,1.09h-.49a2.86,2.86,0,0,1-2-1.6l-5.5-8.11-.65.14a6.31,6.31,0,0,0-5,6.51v21.06A1.43,1.43,0,0,1,1.43,136.8Zm10.75-32.13a1.61,1.61,0,0,1-.28.24l-1.2.8,5.94,8.69,2.42-4.09a.93.93,0,0,1,.12-.18l.1-.13.06-.14a1.66,1.66,0,0,0,0-1.12l-.1-.24-5.95-5.09Zm15.09,3.83-.09.23a1.57,1.57,0,0,0,0,1.13l.09.23.18.16.14.14,2.34,4,5.85-8.61-1.14-.85a1.51,1.51,0,0,1-.32-.27l-1.11-1.26Zm-6.12-2.12a.67.67,0,0,1,.14.15,4.28,4.28,0,0,1,1,2.69h2a4.38,4.38,0,0,1,1-2.7l.14-.13,3.53-3.07-3.74.78a14.14,14.14,0,0,1-2.59.27l-.49,0a5.81,5.81,0,0,0-.72,0H18.67ZM8.77,87a27,27,0,0,0,5.39,10.42,11.24,11.24,0,0,0,8.44,4,9.82,9.82,0,0,0,6.3-2.23,26.77,26.77,0,0,0,7.92-12.56A7.5,7.5,0,0,0,35,80.41c-2-1.86-5-2.13-6.62-2.13-.37,0-.71,0-1,0l-.22,0-.19.11a21.12,21.12,0,0,1-10.27,2.91,13.19,13.19,0,0,1-4-.57l-.25-.08-.27.06a5,5,0,0,0-3.55,2.93l-.07.16V84a10.26,10.26,0,0,0,.18,2.71ZM22.9,65.87A15,15,0,0,0,12.46,70.1,14.78,14.78,0,0,0,8.3,77.59l-.47,2.2,1.94-1.12a5.33,5.33,0,0,1,2.7-.72,5.67,5.67,0,0,1,.91.07l.23.08a9.44,9.44,0,0,0,3.16.46,18.77,18.77,0,0,0,9.3-2.78,1.64,1.64,0,0,1,.5-.17,15.51,15.51,0,0,1,1.88-.11,13.56,13.56,0,0,1,7.21,1.85L38,78.85l-.87-2.66a15.08,15.08,0,0,0-3.48-5.76A14.87,14.87,0,0,0,22.9,65.87ZM70.33,51.21a6.31,6.31,0,0,0-5-6.47l-.65-.13-5.47,8.06a3,3,0,0,1-2.23,1.74h-.31a2.93,2.93,0,0,1-2.27-1.16h0a1,1,0,0,0,0-.12l-2.48-4.28A4.38,4.38,0,0,1,52,43.46a.92.92,0,0,1,.14-.14l3-2.54-3.42.47a7.38,7.38,0,0,1-1.05,0h-.12A13,13,0,0,1,48,41.06l-3.69-.72,3.46,3,.15.15a4.34,4.34,0,0,1,.16,5.34L45.64,53a1.27,1.27,0,0,1-.13.19,2.94,2.94,0,0,1-2.29,1.08h-.49a2.84,2.84,0,0,1-2-1.59l-5.5-8.11-.65.13a6.31,6.31,0,0,0-5,6.52v5.87a27.29,27.29,0,0,0-2.85-.63V51.21A9.28,9.28,0,0,1,33.58,42l.39-.1.21-.35a1.39,1.39,0,0,1,.42-.45l4.07-3.58a2.56,2.56,0,0,1,.41-.35l1-.57-.71-.91a30.17,30.17,0,0,1-6.45-17.94,17.83,17.83,0,0,1,35.66.07,20.52,20.52,0,0,1-.74,5.45A32.3,32.3,0,0,1,61,36.05l-.67.77.77.65,4,3.55a1.71,1.71,0,0,1,.52.53l.21.35.39.1a9.27,9.27,0,0,1,6.9,9.19v5.38a25.3,25.3,0,0,0-2.86.68ZM54,45.45l-.09.23a1.47,1.47,0,0,0,0,1.13l.09.25.21.16.18.18L55.85,50l.81,1.36,5.81-8.73-1.19-.8a1.31,1.31,0,0,1-.28-.24l-1.12-1.26Zm-15.1-3.83a1.31,1.31,0,0,1-.28.24l-1.2.8,5.94,8.68,2.42-4.08.13-.2L46,47l.06-.13a1.63,1.63,0,0,0,0-1.15l-.1-.22L40,40.36ZM36.66,24A26.93,26.93,0,0,0,42.05,34.4a11.23,11.23,0,0,0,8.44,4,9.79,9.79,0,0,0,6.29-2.23,26.76,26.76,0,0,0,7.93-12.56,7.5,7.5,0,0,0-1.8-6.23c-2-1.87-5-2.14-6.62-2.14-.38,0-.72,0-1,0l-.22,0-.19.1A21.06,21.06,0,0,1,44.61,18.3a13.13,13.13,0,0,1-4-.57l-.25-.08-.27.06a5,5,0,0,0-3.55,2.93l-.07.16V21a10.26,10.26,0,0,0,.18,2.71ZM50.78,2.82A14.91,14.91,0,0,0,36.19,14.54l-.47,2.2,1.94-1.12a5.34,5.34,0,0,1,2.7-.73,5.69,5.69,0,0,1,.91.08l.23.07a9,9,0,0,0,3.15.47A18.8,18.8,0,0,0,54,12.73a1.41,1.41,0,0,1,.5-.17,15.3,15.3,0,0,1,1.88-.11,13.64,13.64,0,0,1,7.21,1.84L65.9,15.8,65,13.14a15.13,15.13,0,0,0-3.48-5.76A14.87,14.87,0,0,0,50.78,2.82Zm72.9,48.39a6.32,6.32,0,0,0-5-6.47l-.66-.13-5.47,8a3.1,3.1,0,0,1-.9,1.15,2.76,2.76,0,0,1-1.68.56h0a2.76,2.76,0,0,1-2.17-1c-.25-.51-.89-1.62-2.59-4.46a4.44,4.44,0,0,1-.86-2.45h-2a4.36,4.36,0,0,1-.82,2.41c-.05.07-2.51,4.2-2.69,4.48a2.69,2.69,0,0,1-2,1A3.62,3.62,0,0,1,94,52.57l-5.41-8-.66.13a6.32,6.32,0,0,0-5,6.52v5.57A25.44,25.44,0,0,0,80,56.36V51.21A9.26,9.26,0,0,1,86.94,42l.39-.1.21-.35A1.51,1.51,0,0,1,88,41.1c1.67-1.47,4.26-3.76,4.55-4l1-.58-.78-.86a30.17,30.17,0,0,1-6.45-17.94,17.83,17.83,0,0,1,35.66.07,20.46,20.46,0,0,1-.74,5.45,32.3,32.3,0,0,1-6.81,12.78l-.66.76.76.66,4,3.55a1.82,1.82,0,0,1,.52.53l.2.35.4.1a9.27,9.27,0,0,1,6.9,9.19v5.38a25.3,25.3,0,0,0-2.86.68ZM107.3,45.45l-.09.22a1.53,1.53,0,0,0,0,1.15l.1.24.2.16.18.18L109.2,50l.81,1.36,5.81-8.73-1.19-.8a1.31,1.31,0,0,1-.28-.24l-1.11-1.26ZM92.21,41.62a1.68,1.68,0,0,1-.29.24l-1.2.8,5.94,8.68,2.42-4.08a1.73,1.73,0,0,1,.14-.2l.09-.11,0-.14a1.57,1.57,0,0,0,0-1.13l-.09-.23-6-5.09Zm9,1.7a1.21,1.21,0,0,1,.16.16,4.28,4.28,0,0,1,1,2.62h2a4.3,4.3,0,0,1,1-2.64l.14-.14,3-2.54-3.42.47a7.38,7.38,0,0,1-1,0h-.12a13,13,0,0,1-2.49-.24l-3.68-.72ZM90,24A27,27,0,0,0,95.4,34.41a11.27,11.27,0,0,0,8.44,4,9.77,9.77,0,0,0,6.29-2.23,26.76,26.76,0,0,0,7.93-12.56,7.5,7.5,0,0,0-1.8-6.23c-2-1.87-5-2.14-6.62-2.14-.37,0-.71,0-1,0l-.22,0-.19.1A21.06,21.06,0,0,1,98,18.3a13.13,13.13,0,0,1-4-.57l-.26-.08-.26.06a5.06,5.06,0,0,0-3.55,2.93l-.07.16V21A10.26,10.26,0,0,0,90,23.68ZM104.14,2.82a14.91,14.91,0,0,0-14.6,11.72l-.47,2.2L91,15.62a5.34,5.34,0,0,1,2.7-.73,5.69,5.69,0,0,1,.91.08,1.06,1.06,0,0,1,.23.08,9.34,9.34,0,0,0,3.15.46,18.78,18.78,0,0,0,9.31-2.78,1.41,1.41,0,0,1,.5-.17,15.51,15.51,0,0,1,1.88-.11,13.64,13.64,0,0,1,7.21,1.84l2.35,1.51-.87-2.66a15.08,15.08,0,0,0-3.48-5.76A14.87,14.87,0,0,0,104.14,2.82Z"/></svg>