<svg id="Layer_1" data-name="Layer 1" xmlns="http://www.w3.org/2000/svg" viewBox="0 0 136.8 136.8"><defs><style>.cls-1{fill:#6ce5df;}</style></defs><path class="cls-1" d="M50.65,136.8v-4.6h-22v4.6H25.32V100.63a1.63,1.63,0,0,1,1.12-1.55l6.09-2L36.9,81.76a1.65,1.65,0,0,1,1.57-1.18H53.92v3.27h-2.3v2.58l2.13,4.26a1.63,1.63,0,0,1-.31,1.89L51.33,94.7,50,97.37l4.6,1.54L60.2,97l1.72-5.17L58,88a1.84,1.84,0,0,1-.3-.43,1.64,1.64,0,0,1,.73-2.2l3.7-1.84v-5.9A1.64,1.64,0,0,1,63.8,76H73a1.64,1.64,0,0,1,1.63,1.64V91.42a1.63,1.63,0,0,1-.06.45L70,108a1.62,1.62,0,0,1-.77,1L53.92,117.7v19.1Zm-22-35v27.11h22v-11.3L45,113.87l1.82-2.72,5.51,3.67L67,106.45l3.83-13.39H65l-1.93,5.79a1.64,1.64,0,0,1-1,1l-6.9,2.31a1.88,1.88,0,0,1-.52.08,1.82,1.82,0,0,1-.52-.08L47.42,100H34.13ZM36,96.69H46.67L48.52,93a1.43,1.43,0,0,1,.31-.42l1.46-1.47-1.77-3.55a1.66,1.66,0,0,1-.17-.73v-3H39.71ZM65.43,84.52a1.62,1.62,0,0,1-.9,1.46L62,87.27l2.52,2.52h6.89V79.25H65.43ZM0,136.8V100.63a1.63,1.63,0,0,1,.91-1.46l4-2,4.4-15.43a1.65,1.65,0,0,1,1.58-1.18H26.3v3.27H24v2.58l2.13,4.26a1.63,1.63,0,0,1-.3,1.89L23.7,94.7l-2.18,4.36a1.63,1.63,0,0,1-1.47.91H6.63l-3.36,1.67v27.28H19.39v3.28H3.27v4.6ZM8.41,96.69H19L20.89,93a1.63,1.63,0,0,1,.31-.42l1.47-1.47-1.78-3.55a1.66,1.66,0,0,1-.17-.73v-3H12.08Zm51.45,30.9v-3.27H73.67V109.84a1.65,1.65,0,0,1,1.64-1.64h3v-7.71l4.35-47.78L69.55,39.63a1.61,1.61,0,0,1-.35-1.8l6.91-16.12a1.62,1.62,0,0,1,.77-.82l8.56-4.28L89.85,1.19A1.65,1.65,0,0,1,91.42,0h15.45V3.27h-2.3V5.85l2.13,4.26a1.64,1.64,0,0,1-.3,1.89l-1.83,1.83v3.22l5.21,1.3,6.08-2L131.24,1l2.31,2.32L130,6.8l.88.39a6.56,6.56,0,0,1,2,1.35,6.53,6.53,0,0,1,0,9.22l-15,15a1.64,1.64,0,0,1-1.16.48h-9.88V49.46l11.21,15.69a1.62,1.62,0,0,1,.29,1.15L116.3,82.85l.72,0a6.24,6.24,0,0,1,6,6.23v3H136.8v3.27H104.57v14.48a1.64,1.64,0,0,1-1.63,1.64H77V126a1.64,1.64,0,0,1-1.64,1.63Zm29.2-28.65.8.1a6.25,6.25,0,0,1,5.5,6.2v3h5.94V93.73a1.63,1.63,0,0,1,1.64-1.64h3V71.52l-6.7-5Zm-7.51,9.26H92.09v-3a3,3,0,0,0-3-3H81.55ZM81.71,99h3.91L96.77,63.31a1.57,1.57,0,0,1,.25-.5,1.63,1.63,0,0,1,1.31-.65,1.57,1.57,0,0,1,1,.33l9.21,6.9a1.66,1.66,0,0,1,.66,1.31V82.88H113l2-16.35L104.4,51.62H100v.67a1.62,1.62,0,0,1-.48,1.15l-6.91,6.91a1.63,1.63,0,0,1-2.31,0l-4.63-4.63Zm27.47-6.9h10.54v-3a3,3,0,0,0-3-3h-7.57ZM84.53,50l6.89,6.9L96,52.29l-3.44-3.45a1.64,1.64,0,0,1-.48-1.16v-3H89.8Zm0-20a1.7,1.7,0,0,1,.73.17A1.64,1.64,0,0,1,86,32.3l-1.77,3.55,5.59,5.59h3.93a1.63,1.63,0,0,1,1.63,1.64V47l1.35,1.35h6.89V31.57a1.63,1.63,0,0,1,1.64-1.64h10.83l9.87-9.88-4.59-4.59-3.44,3.45a1.65,1.65,0,0,1-.64.4l-6.91,2.3a1.82,1.82,0,0,1-.52.08,1.37,1.37,0,0,1-.4-.05l-7.06-1.76-.17.62A1.68,1.68,0,0,1,102,21l-4.32,6.49V40.11H94.39V27.64L86.5,19.75l-7.62,3.8L72.65,38.1l9.56,9.57,4.6-4.59-5.75-5.75a1.63,1.63,0,0,1-.31-1.89l2.3-4.61A1.62,1.62,0,0,1,84.52,29.93Zm4.14-12.65,7.11,7.11L99,19.55l-1-.19a1.64,1.64,0,0,1-.85-.45l-2.3-2.3a1.64,1.64,0,0,1,2.32-2.32L99,16.12h2.29v-3a1.63,1.63,0,0,1,.48-1.16l1.47-1.47L101.47,7a1.63,1.63,0,0,1-.17-.73v-3H92.66Zm39.6-7.38a3.25,3.25,0,0,0-2.3.95l-2.29,2.3,4.59,4.59,2.29-2.3a3.25,3.25,0,0,0-2.29-5.54Z"/></svg>