<svg id="Layer_1" data-name="Layer 1" xmlns="http://www.w3.org/2000/svg" viewBox="0 0 145.92 136.8"><defs><style>.cls-1{fill:#6ce5df;}</style></defs><path class="cls-1" d="M99.18,68.4h0A26.22,26.22,0,1,0,73,94.62,26.22,26.22,0,0,0,99.18,68.4ZM73,90.06A21.66,21.66,0,1,1,94.62,68.4,21.66,21.66,0,0,1,73,90.06Z"/><path class="cls-1" d="M41,82.08H31c-4.36,0-7.07-2.54-7.07-6.61V74.09a15,15,0,0,1-3.88,5.4c1.54,4.34,5.61,7.15,11,7.15H41a2.28,2.28,0,1,0,0-4.56Z"/><path class="cls-1" d="M41,50.16H31c-5.34,0-9.41,2.8-11,7.14a15,15,0,0,1,3.88,5.4V61.32c0-4.07,2.71-6.6,7.07-6.6H41a2.28,2.28,0,0,0,0-4.56Z"/><path class="cls-1" d="M20.52,68.4A10.26,10.26,0,1,0,10.26,78.66,10.27,10.27,0,0,0,20.52,68.4ZM16,68.4a5.7,5.7,0,1,1-5.7-5.7A5.71,5.71,0,0,1,16,68.4Z"/><path class="cls-1" d="M33.06,28.84a6.08,6.08,0,0,1,1.84-4.36,14.45,14.45,0,0,1-5.66.5,9.92,9.92,0,0,0-.74,4,11.61,11.61,0,0,0,3.66,7.9l6.92,6.92a2.28,2.28,0,0,0,3.22-3.23l-6.91-6.91A7.15,7.15,0,0,1,33.06,28.84Z"/><path class="cls-1" d="M54.17,14.86l6.92,6.92a2.28,2.28,0,1,0,3.22-3.22l-6.92-6.92c-3.5-3.51-8-4.49-11.88-2.93a14.83,14.83,0,0,1-.5,5.66C47.77,11.77,51.25,11.94,54.17,14.86Z"/><path class="cls-1" d="M30.78,20.51a10.26,10.26,0,1,0-7.25-3A10.26,10.26,0,0,0,30.78,20.51ZM26.72,6.25l0,0a5.7,5.7,0,1,1,0,8.07A5.71,5.71,0,0,1,26.75,6.22Z"/><path class="cls-1" d="M100.42,8.71C96.49,7.15,92,8.13,88.53,11.64l-6.92,6.92a2.28,2.28,0,1,0,3.23,3.22l6.91-6.92c2.92-2.92,6.41-3.09,9.17-.49A14.83,14.83,0,0,1,100.42,8.71Z"/><path class="cls-1" d="M105.23,44.45a2.32,2.32,0,0,0,1.62-.66l6.91-6.92c3.51-3.5,4.49-8,2.93-11.89a14.43,14.43,0,0,1-5.66-.5c2.6,2.76,2.42,6.25-.49,9.17l-6.92,6.91a2.29,2.29,0,0,0,0,3.23A2.31,2.31,0,0,0,105.23,44.45Z"/><path class="cls-1" d="M115.15,20.51a10.26,10.26,0,1,0-7.26-3A10.26,10.26,0,0,0,115.15,20.51Zm-4-14.29a5.7,5.7,0,1,1,0,8.07A5.71,5.71,0,0,1,111.12,6.22Z"/><path class="cls-1" d="M39.08,93l-6.92,6.92a11.59,11.59,0,0,0-3.66,7.9,9.88,9.88,0,0,0,.74,4,14.83,14.83,0,0,1,5.66.5A6.08,6.08,0,0,1,33.06,108a7.15,7.15,0,0,1,2.33-4.8l6.91-6.92A2.28,2.28,0,0,0,39.08,93Z"/><path class="cls-1" d="M61.09,115l-6.92,6.91c-2.92,2.92-6.4,3.09-9.16.5a14.76,14.76,0,0,1,.5,5.65,10,10,0,0,0,3.71.73,11.56,11.56,0,0,0,8.17-3.65l6.92-6.92A2.28,2.28,0,0,0,61.09,115Z"/><path class="cls-1" d="M38,119.29a10.26,10.26,0,1,0,0,14.51,10.26,10.26,0,0,0,0-14.51Zm-3.22,11.28a5.7,5.7,0,1,1,0-8.06A5.7,5.7,0,0,1,34.81,130.57Z"/><path class="cls-1" d="M91.75,121.93,84.84,115a2.28,2.28,0,1,0-3.23,3.22l6.92,6.92a11.59,11.59,0,0,0,8.17,3.65,10.06,10.06,0,0,0,3.72-.73,14.76,14.76,0,0,1,.5-5.65C98.16,125,94.67,124.85,91.75,121.93Z"/><path class="cls-1" d="M111,112.31a14.81,14.81,0,0,1,5.66-.5c1.56-3.92.58-8.38-2.93-11.88L106.85,93a2.28,2.28,0,0,0-3.23,3.22l6.92,6.92C113.45,106.07,113.63,109.55,111,112.31Z"/><path class="cls-1" d="M122.4,119.29a10.26,10.26,0,1,0,0,14.51,10.27,10.27,0,0,0,0-14.51Zm-3.05,11.23a.14.14,0,0,1-.17,0,5.7,5.7,0,1,1,0-8.06A5.63,5.63,0,0,1,119.35,130.52Z"/><path class="cls-1" d="M104.88,54.72h10c4.36,0,7.07,2.53,7.07,6.6V62.7a15,15,0,0,1,3.88-5.4c-1.54-4.34-5.61-7.14-11-7.14h-10a2.28,2.28,0,0,0,0,4.56Z"/><path class="cls-1" d="M122,75.47c0,4.07-2.71,6.61-7.07,6.61h-10a2.28,2.28,0,0,0,0,4.56h10c5.34,0,9.41-2.81,11-7.15a15,15,0,0,1-3.88-5.4Z"/><path class="cls-1" d="M135.66,58.14A10.26,10.26,0,1,0,145.92,68.4h0A10.27,10.27,0,0,0,135.66,58.14Zm5.7,10.26a5.7,5.7,0,1,1-5.7-5.7,5.72,5.72,0,0,1,5.7,5.7Z"/><path class="cls-1" d="M74.3,61.14a4.51,4.51,0,0,1,3.31,2.76A2.28,2.28,0,1,0,82,62.62h0a9,9,0,0,0-6.75-5.94v-2a2.28,2.28,0,1,0-4.56,0v2a7.62,7.62,0,0,0-5,3.1,6.71,6.71,0,0,0,0,7.37c1.63,2.6,4.44,3.38,6.91,4.06s3.85,1.17,4.25,2.38-.85,2-1.55,2.32a5.72,5.72,0,0,1-4.43-.17,4.71,4.71,0,0,1-2.61-2.61A2.28,2.28,0,0,0,64,74.68h0a9.21,9.21,0,0,0,5,5.25,12,12,0,0,0,1.66.57v1.57a2.28,2.28,0,0,0,4.56,0V80.69a9.4,9.4,0,0,0,1.81-.53c3.44-1.43,5.19-4.78,4.14-8-1.22-3.66-4.63-4.6-7.37-5.35-1.84-.5-3.57-1-4.26-2.09a2.21,2.21,0,0,1-.06-2.38C70.37,61.08,72.6,60.83,74.3,61.14Z"/></svg>