<svg id="Layer_1" data-name="Layer 1" xmlns="http://www.w3.org/2000/svg" viewBox="0 0 107.7 136.8"><defs><style>.cls-1{fill:#6ce5df;}</style></defs><path class="cls-1" d="M107.7,21H83.83V0H24.16V21H0v5.82H8.73v110H99v-110h8.74ZM42.21,131v-18H65.49v18Zm50.93,0H71.31V107.11H36.38V131H14.55V26.78H30v-21H78v21H93.14Z"/><rect class="cls-1" x="78.59" y="41.62" width="5.82" height="14.84"/><rect class="cls-1" x="23.29" y="41.62" width="5.82" height="14.84"/><rect class="cls-1" x="41.62" y="41.62" width="5.82" height="14.84"/><rect class="cls-1" x="60.25" y="41.62" width="5.82" height="14.84"/><rect class="cls-1" x="78.59" y="69.86" width="5.82" height="14.85"/><rect class="cls-1" x="23.29" y="69.86" width="5.82" height="14.85"/><rect class="cls-1" x="41.62" y="69.86" width="5.82" height="14.85"/><rect class="cls-1" x="60.25" y="69.86" width="5.82" height="14.85"/><rect class="cls-1" x="78.59" y="98.09" width="5.82" height="14.84"/><rect class="cls-1" x="23.29" y="98.09" width="5.82" height="14.84"/><polygon class="cls-1" points="62.58 23.58 62.58 17.75 56.76 17.75 56.76 11.93 50.94 11.93 50.94 17.75 45.12 17.75 45.12 23.58 50.94 23.58 50.94 29.69 56.76 29.69 56.76 23.58 62.58 23.58"/></svg>