<svg id="Layer_1" data-name="Layer 1" xmlns="http://www.w3.org/2000/svg" viewBox="0 0 133.76 133.76"><defs><style>.cls-1{fill:#6ce5df;}</style></defs><path class="cls-1" d="M101.08,133.76a3.37,3.37,0,0,1,0-6.73h26V101.08a3.37,3.37,0,0,1,6.73,0V130.4a3.37,3.37,0,0,1-3.36,3.36Zm-97.71,0A3.37,3.37,0,0,1,0,130.4V101.08a3.37,3.37,0,0,1,6.73,0v26h26a3.37,3.37,0,1,1,0,6.73Zm28.91-29.33A3.36,3.36,0,0,1,30,103.18a3.32,3.32,0,0,1-.71-2.47A37.5,37.5,0,0,1,61.94,67.85l.2-3a18,18,0,0,1,0-34.84,18.23,18.23,0,0,1,4.63-.61,18,18,0,0,1,4.61,35.45l.21,3a37.46,37.46,0,0,1,32.87,32.87c0,.12,0,.25,0,.39a3.37,3.37,0,0,1-3.37,3.34H32.65ZM66.64,74.06A30.69,30.69,0,0,0,37.19,95.74l-.61,2H97.19l-.62-2A30.68,30.68,0,0,0,67.13,74.06Zm.24-38A11.29,11.29,0,1,0,78.17,47.34,11.3,11.3,0,0,0,66.88,36.05Zm63.52,0A3.37,3.37,0,0,1,127,32.68V6.73H101.08a3.37,3.37,0,0,1,0-6.73H130.4a3.37,3.37,0,0,1,3.36,3.37V32.68A3.37,3.37,0,0,1,130.4,36.05Zm-127,0A3.37,3.37,0,0,1,0,32.68V3.37A3.37,3.37,0,0,1,3.37,0H32.68a3.37,3.37,0,1,1,0,6.73H6.73v26A3.37,3.37,0,0,1,3.37,36.05Z"/></svg>