<svg id="Layer_1" data-name="Layer 1" xmlns="http://www.w3.org/2000/svg" viewBox="0 0 531.72 50.81"><defs><style>.cls-1{fill:#6ce5df;}</style></defs><path class="cls-1" d="M440.68,50.81c-23.36,0-35-11.61-46.27-22.84-10.7-10.65-20.79-20.71-41.15-20.71S322.81,17.32,312.12,28C300.85,39.2,289.2,50.81,265.85,50.81S230.85,39.2,219.59,28C208.9,17.32,198.8,7.26,178.44,7.26S148,17.32,137.3,28C126,39.2,114.39,50.81,91,50.81S56,39.2,44.77,28C34.08,17.32,24,7.26,3.63,7.26A3.63,3.63,0,0,1,3.63,0C27,0,38.63,11.61,49.89,22.83,60.59,33.49,70.68,43.55,91,43.55s30.45-10.06,41.14-20.72C143.44,11.61,155.09,0,178.44,0s35,11.61,46.27,22.83c10.69,10.66,20.79,20.72,41.14,20.72S296.3,33.49,307,22.83C318.26,11.61,329.91,0,353.26,0s35,11.61,46.27,22.83c10.69,10.66,20.79,20.72,41.15,20.72s30.45-10.06,41.14-20.72C493.09,11.61,504.74,0,528.09,0a3.63,3.63,0,0,1,0,7.26c-20.36,0-30.45,10.06-41.15,20.71C475.68,39.2,464,50.81,440.68,50.81Z"/></svg>