<svg id="Layer_1" data-name="Layer 1" xmlns="http://www.w3.org/2000/svg" viewBox="0 0 139.68 139.68"><defs><style>.cls-1{fill:#6ce5df;}</style></defs><path class="cls-1" d="M69.84,139.68a69.84,69.84,0,1,1,69.84-69.84A69.92,69.92,0,0,1,69.84,139.68ZM27.57,19.45a65.79,65.79,0,0,0,79.36,104.74l1-.7L95.75,107.4H60.16a2.05,2.05,0,0,1-1.37-.54L41,90.71a2.07,2.07,0,0,1-.68-1.51V34.29L28.52,18.65ZM69.84,4.09a65.41,65.41,0,0,0-37,11.41l-1,.7L44,32.28h53.3a2.05,2.05,0,0,1,2,2v71L111.16,121l1-.8A65.74,65.74,0,0,0,69.84,4.09ZM44.45,88.27l16.89,15.37V86.42H44.45Zm0-6H63.39a2.05,2.05,0,0,1,2,2.05v18.94H92.65L44.45,39.69ZM95.24,99.94V36.38H47.09Z"/></svg>