<svg id="Layer_1" data-name="Layer 1" xmlns="http://www.w3.org/2000/svg" viewBox="0 0 118.17 139.68"><defs><style>.cls-1{fill:#6ce5df;}</style></defs><path class="cls-1" d="M27,139.68a2.14,2.14,0,0,1-1.62-.73L.82,114.67A2.2,2.2,0,0,1,0,113V2.14A2.14,2.14,0,0,1,2.14,0H91.22a2.11,2.11,0,0,1,1.65.78L117.53,25.2a2.09,2.09,0,0,1,.63,1.51V137.54a2.14,2.14,0,0,1-2.14,2.14Zm.87-4.28h86.07V27.59l-8.13-8V125.26a2.14,2.14,0,0,1-2.14,2.14H19.74ZM15.41,123.12h86.07V15.3l-8.12-8V113a2.14,2.14,0,0,1-2.14,2.14H7.33ZM4.28,110.83h84.8V4.28H4.28ZM14.66,97.38a2.14,2.14,0,0,1,0-4.28h64a2.14,2.14,0,0,1,0,4.28Zm0-19.69a2.14,2.14,0,0,1,0-4.28h64a2.14,2.14,0,0,1,0,4.28Zm0-19.68a2.15,2.15,0,0,1,0-4.29h64a2.15,2.15,0,0,1,0,4.29Zm6.69-19.69a2.14,2.14,0,0,1-2.14-2.14V19.88a2.14,2.14,0,0,1,2.14-2.14H72a2.14,2.14,0,0,1,2.15,2.14v16.3A2.14,2.14,0,0,1,72,38.32ZM23.49,34H69.86V22H23.49Z"/></svg>