<svg id="STEM" xmlns="http://www.w3.org/2000/svg" width="589.66" height="117.249" viewBox="0 0 589.66 117.249">
  <g id="M" transform="translate(425.044 0.318)">
    <g id="Group_9" data-name="Group 9">
      <path id="Path_45" data-name="Path 45" d="M331.668,137.5c.081-18.888-16.83-35.1-34.064-34.32-10.5.455-21.058.08-31.614.054-23.589,0-47.205.08-70.794-.08-3.5-.027-4.659.964-4.5,4.474.269,6.108.108,12.27.135,18.406l30.725.08c11.9.027,15.672,3.724,15.672,15.432,0,24.728.054,49.484-.081,74.212-.027,3.269.808,4.474,4.228,4.26a106.506,106.506,0,0,1,14.326,0c4.012.295,5.251-.857,5.224-4.983-.189-25.425-.108-50.877-.081-76.3,0-2.92.108-5.867-.835-8.707-.943-2.867-.35-4.1,3.151-4.019,10.394.241,20.789.054,31.183.134,9.183.054,13.706,4.581,13.706,13.664,0,25.157.081,50.314-.081,75.471-.027,3.563.727,5.064,4.6,4.769a94.7,94.7,0,0,1,14.326,0c4.093.321,4.847-1.286,4.82-4.983Q331.52,176.277,331.668,137.5Z" transform="translate(-167.107 -103.15)" fill="#097f7f"/>
      <path id="Path_46" data-name="Path 46" d="M186.295,111.737c-3.2-.081-4.443.727-4.362,4.2.242,8.428.081,16.857.081,25.286,0,20.223.081,40.446-.081,60.669-.027,3.42,1.05,4.362,4.309,4.2a128,128,0,0,1,14.73.027c3.77.269,4.686-1.023,4.686-4.712-.135-29.89-.081-59.807-.054-89.7C199.166,111.737,192.73,111.925,186.295,111.737Z" transform="translate(-181.929 -89.256)" fill="#097f7f"/>
      <path id="Path_47" data-name="Path 47" d="M190.72,111.744h.054v-.054h-.054Z" transform="translate(-167.046 -88.693)" fill="#097f7f"/>
    </g>
  </g>
  <g id="E" transform="translate(280.983 0.049)">
    <path id="Path_48" data-name="Path 48" d="M151.576,139.681c.027-8.776,4.766-13.352,13.572-13.405,9.694-.053,19.388-.027,29.082-.027,15.753,0,31.479-.134,47.232.08,3.608.053,4.551-1.044,4.362-4.468A147.948,147.948,0,0,1,245.8,106.8c.135-2.97-.916-3.773-3.824-3.746-14.057.134-28.113.054-42.17.054q-18.338,0-36.676.027c-1.831,0-3.635.268-5.466.4-13.437,1.017-28.652,15.546-29,28.925-.539,20.362-.242,40.778-.35,61.167,0,2.141.727,2.943,2.935,2.917,5.466-.107,10.96-.241,16.453.054,3.312.161,3.958-1.044,3.932-4.067C151.5,174.894,151.522,157.287,151.576,139.681Z" transform="translate(-128.31 -103.05)" fill="#08f8c0"/>
    <path id="Path_49" data-name="Path 49" d="M226.2,137.952c-13.895.269-27.79.108-41.685.108-14.6,0-29.217.054-43.812-.054-2.693-.027-3.689.646-3.581,3.474.215,5.6.135,11.229.027,16.857-.027,2.208.4,3.258,2.989,3.258q43.785-.121,87.6,0c2.343,0,3.231-.7,3.151-3.124-.162-5.2-.269-10.394.027-15.564C231.131,139.218,230.27,137.871,226.2,137.952Z" transform="translate(-113.401 -44.57)" fill="#08f8c0"/>
    <path id="Path_50" data-name="Path 50" d="M149.21,144.164q31.627-.121,63.227,0c2.5,0,3.474-.592,3.366-3.285-.215-5.6-.189-11.256,0-16.857.108-2.747-.727-3.608-3.528-3.581-10.26.135-20.519.054-30.779.054-10.69,0-21.354.081-32.045-.054-2.5-.027-3.5.646-3.42,3.285.162,5.763.135,11.525,0,17.288C146.033,143.41,146.841,144.191,149.21,144.164Z" transform="translate(-98.316 -73.91)" fill="#08f8c0"/>
  </g>
  <g id="T" transform="translate(144.094)">
    <g id="Group_12" data-name="Group 12">
      <path id="Path_51" data-name="Path 51" d="M148.135,173.65V153.5c0-6.725-.162-13.423.027-20.147.458-16.557-14-30.408-30.106-29.953-12.333.348-24.72.536-37.08-.348-2.531-.188-3.608.8-3.555,3.349.081,5.465.162,10.9-.027,16.37-.108,2.84,1,3.59,3.689,3.536,8-.134,16.022-.161,24.047-.027,11.956.188,19.415,7.716,19.415,19.531.027,23.362.054,46.7-.054,70.06-.027,3.215.754,4.5,4.2,4.287a123.266,123.266,0,0,1,14.757,0c3.635.214,4.847-.777,4.793-4.581C148,201.62,148.135,187.635,148.135,173.65Z" transform="translate(-77.387 -103.032)" fill="#097f7f"/>
      <path id="Path_52" data-name="Path 52" d="M130.143,103.183c-2.935.108-5.9.027-8.832.027v.081c-3.1,0-6.167.054-9.263-.027-1.966-.054-2.774.727-2.747,2.72q.081,8.846,0,17.692c-.027,1.777.727,2.531,2.5,2.5,6.167-.054,12.36-.054,18.527,0,1.939.027,2.774-.727,2.747-2.72-.054-5.763-.081-11.525,0-17.261C133.132,104.045,132.351,103.1,130.143,103.183Z" transform="translate(-23.366 -102.784)" fill="#097f7f"/>
    </g>
  </g>
  <g id="S" transform="translate(0 0.022)">
    <path id="Path_53" data-name="Path 53" d="M141.282,154.908c.108-4.179-.942-5.331-5.278-5.3-29.513.161-59,.027-88.513-.027a1.113,1.113,0,0,0-.162-.723c.054-3.081.108-6.135.135-9.216.027-8.52,4.551-13.208,13.168-13.315,6.894-.08,13.76-.027,20.654-.027,18.554,0,37.08-.107,55.634.08,3.581.027,4.551-1.018,4.362-4.447a148.325,148.325,0,0,1,0-15.084c.135-2.893-.754-3.8-3.743-3.8-26.255.107-52.537,0-78.792.08-11.364.027-20.573,4.528-27.305,13.8l-.027.027c-5.251,5.573-7.324,12.431-7.432,19.826-.188,10.475.135,20.978-.162,31.453-.108,3.938.808,5.144,4.982,5.117,28.248-.214,56.5-.027,84.716-.214,3.878-.027,4.793,1.179,4.578,4.742-.269,4.313-.081,8.654-.081,12.994,0,5.814,0,5.814-5.736,5.814-27.951,0-55.93.08-83.881-.08-3.8-.027-4.82.991-4.578,4.635.323,5.144.188,10.341.027,15.512-.081,2.492.619,3.376,3.285,3.376q43.826-.121,87.678,0c2.774,0,3.285-1.1,3.231-3.456-.108-5.6.081-11.172-.081-16.771-.081-2.492.646-3.483,3.285-3.376,5.2.188,10.394-.161,15.591.134,3.474.188,4.551-.857,4.5-4.394C141.066,179.8,140.986,167.339,141.282,154.908Z" transform="translate(-23.788 -103.04)" fill="#08f8c0"/>
  </g>
</svg>
