<svg id="Layer_1" data-name="Layer 1" xmlns="http://www.w3.org/2000/svg" viewBox="0 0 82.54 120.22"><defs><style>.cls-1{fill:#6ce5df;}</style></defs><path class="cls-1" d="M80,87.32C74.08,71.06,58.5,60.11,43.18,60.26c-11.62.14-20.31,3.07-27.86,9.13A40.13,40.13,0,0,0,2.75,86.63,39.58,39.58,0,0,0,0,102.45c.1,2.49.29,2.84,2.66,3.67Q22.74,113,42.78,120a3.73,3.73,0,0,0,3-.14q5.2-2.4,10.45-4.73l24.14-10.9c1.92-.86,2.19-1.4,2.19-3.54A41,41,0,0,0,80,87.32Zm-40.3,26.31L5,101.69A35.8,35.8,0,0,1,23.54,70c4.38,4.85,9.35,8.78,16.17,9.79Zm-4.66-40.5a25.06,25.06,0,0,1-6.88-5.49,36.62,36.62,0,0,1,26.47.13C49.92,74.72,42.34,76.94,35.05,73.13Zm40.56,27.72L46,114.32c-.33.15-.69.27-1.11.44V79.82c6.34-1,10.78-4.73,14.41-9.79a35.34,35.34,0,0,1,10.09,8.44A36.53,36.53,0,0,1,77.4,97.63C77.69,99.9,77.69,99.9,75.61,100.85Z"/><path class="cls-1" d="M41.26,57.92A29,29,0,0,0,41.28,0h0a29,29,0,0,0,0,57.92Zm0-52.87A23.91,23.91,0,1,1,17.36,29,23.91,23.91,0,0,1,41.26,5.05Z"/></svg>