<svg id="Layer_1" data-name="Layer 1" xmlns="http://www.w3.org/2000/svg" viewBox="0 0 139.75 136.8"><defs><style>.cls-1{fill:#6ce5df;}</style></defs><path class="cls-1" d="M40.39,96.42a3,3,0,1,1,3,2.94A2.95,2.95,0,0,1,40.39,96.42Zm-17.7,0a3,3,0,1,1,2.95,2.94A2.95,2.95,0,0,1,22.69,96.42Zm26.54,0a3,3,0,1,1,3,2.94A2.95,2.95,0,0,1,49.23,96.42Zm-17.69,0a3,3,0,1,1,3,2.94A2.95,2.95,0,0,1,31.54,96.42Z"/><path class="cls-1" d="M10.9,136.8a2.05,2.05,0,0,1-2.05-2.05V86.67H2.05a2.05,2.05,0,0,1-2-2V66.93a2.05,2.05,0,0,1,2.05-2.06H3V49.23A13.86,13.86,0,0,1,16.8,35.39h6.79V29.56l-.3-.27a16.8,16.8,0,1,1,22.4,0l-.3.27v5.83H59V29.56l-.3-.27a16.8,16.8,0,1,1,22.39,0l-.3.27v5.83H94.36V29.56l-.3-.27a16.8,16.8,0,1,1,22.4,0l-.3.27v5.83H123A13.86,13.86,0,0,1,136.8,49.23V64.87h.9a2.05,2.05,0,0,1,2.05,2.06V84.62a2.05,2.05,0,0,1-2.05,2h-6.79v48.08a2.06,2.06,0,0,1-2.06,2.05Zm2-4.1H126.8v-46H13ZM4.11,82.57H135.65V69H4.11ZM120,56a2.05,2.05,0,0,1,2,2v6.79H132.7V49.23A9.75,9.75,0,0,0,123,39.49h-8.84a2.05,2.05,0,0,1-2-2.05V32.19l-1.2.43a16.65,16.65,0,0,1-11.2,0l-1.19-.43v5.25a2.05,2.05,0,0,1-.58,1.41l-.57.6.55.61a13.85,13.85,0,0,1,3.29,6.6l.07.37,4.09,2.78L113,44.67a2.16,2.16,0,0,1,1.35-.5,2.06,2.06,0,0,1,2,2.27,2,2,0,0,1-.76,1.38,1.77,1.77,0,0,1-.32.21L106.45,54a2,2,0,0,1-1,.27,2.27,2.27,0,0,1-1.29-.35l-2.72-1.83V64.87H118V58.08A2.05,2.05,0,0,1,120,56ZM84.62,56a2.05,2.05,0,0,1,2,2v6.79H97.31V49.17l0-.14v-.15l-.05-.09a2,2,0,0,1-.1-1l0-.15,0-.16a9.74,9.74,0,0,0-9.57-8H78.72a2.05,2.05,0,0,1-2-2.05V32.19l-1.2.43a16.62,16.62,0,0,1-11.19,0l-1.2-.43v5.25a2.05,2.05,0,0,1-2,2.05H52.18a9.75,9.75,0,0,0-9.74,9.74V64.87H53.08V58.08a2.05,2.05,0,0,1,4.1,0v6.79h7.69V58.08a2.16,2.16,0,0,1,.23-.92l2.14-4.28L59.91,48a2.11,2.11,0,0,1-1.07-1.26,2,2,0,0,1,2-2.65,2,2,0,0,1,1,.25,1.77,1.77,0,0,1,.32.21l7.79,5.18,7.72-5.14a2.14,2.14,0,0,1,1.35-.5,2.05,2.05,0,0,1,1.29,3.65,2.2,2.2,0,0,1-.32.21l-7.41,4.94,2.14,4.27a2.09,2.09,0,0,1,.23.93v6.79h7.69V58.08A2.05,2.05,0,0,1,84.62,56ZM19.75,56a2.05,2.05,0,0,1,2.05,2v6.79H38.33V52L35.67,53.8a2.16,2.16,0,0,1-1.21.44,2.1,2.1,0,0,1-1.09-.35L24.52,48a2.15,2.15,0,0,1-1.07-1.26,2.06,2.06,0,0,1,2-2.65,2,2,0,0,1,1,.25,2,2,0,0,1,.31.2l7.79,5.19,4-2.74.07-.36a13.79,13.79,0,0,1,3.28-6.56l.55-.61-.57-.6a2.05,2.05,0,0,1-.58-1.41V32.19l-1.19.43a16.65,16.65,0,0,1-11.2,0l-1.19-.43v5.25a2.05,2.05,0,0,1-2.06,2.05H16.8a9.75,9.75,0,0,0-9.75,9.74V64.87H17.69V58.08A2.05,2.05,0,0,1,19.75,56ZM105.26,4.1A12.7,12.7,0,1,0,118,16.8,12.71,12.71,0,0,0,105.26,4.1Zm-35.38,0A12.7,12.7,0,1,0,82.57,16.8,12.72,12.72,0,0,0,69.88,4.1Zm-35.39,0A12.7,12.7,0,1,0,47.18,16.8,12.71,12.71,0,0,0,34.49,4.1ZM52.18,98.47a2.06,2.06,0,1,1,2-2.06A2.05,2.05,0,0,1,52.18,98.47Zm-8.84,0a2.06,2.06,0,1,1,2-2.06A2.06,2.06,0,0,1,43.34,98.47Zm-8.85,0a2.06,2.06,0,1,1,2-2.06A2.05,2.05,0,0,1,34.49,98.47Zm-8.85,0a2.06,2.06,0,1,1,2.06-2.06A2.05,2.05,0,0,1,25.64,98.47Z"/></svg>