<svg id="Layer_1" data-name="Layer 1" xmlns="http://www.w3.org/2000/svg" viewBox="0 0 127.67 139.68"><defs><style>.cls-1{fill:#6ce5df;}</style></defs><path class="cls-1" d="M56.85,139.68a21.71,21.71,0,0,1-21.73-21l0-1.55H12.58a12.75,12.75,0,0,1-11.35-7.23A12.54,12.54,0,0,1,2.85,96.52L11.26,86.3A20.78,20.78,0,0,0,15.7,73.68V62.54A40.93,40.93,0,0,1,40.91,24.72l1-.41V19.47A11.36,11.36,0,0,1,53.24,8.13h7.53a11,11,0,0,1,7.63,3l1.22,1.14L70.72,11a32.53,32.53,0,0,1,57,21.53A32.72,32.72,0,0,1,99.4,64.86L98,65v8.64a19.67,19.67,0,0,0,4.43,12.62l8.43,10.24a12.62,12.62,0,0,1-9.75,20.56H78.64l-.06,1.55A21.7,21.7,0,0,1,56.85,139.68ZM41.54,118.92a15.25,15.25,0,0,0,15.31,14.65A15.56,15.56,0,0,0,72.31,119l.11-1.71H41.47ZM53.09,14.54a4.93,4.93,0,0,0-4.93,4.93v7.08a3.08,3.08,0,0,1-2.17,3A34.87,34.87,0,0,0,22,62.69V73.83a25.88,25.88,0,0,1-5.81,16.6L7.72,100.67a6,6,0,0,0-.8,6.71,6.34,6.34,0,0,0,5.66,3.6h88.7a6.34,6.34,0,0,0,5.65-3.6,6.05,6.05,0,0,0-.82-6.74L97.53,90.56A27.42,27.42,0,0,1,91.74,74V65.21L90.36,65a32.83,32.83,0,0,1-28-32.29,32.5,32.5,0,0,1,2.87-13.34l.21-.47-.1-.51a4.84,4.84,0,0,0-4.74-3.86ZM95,6.26a26.31,26.31,0,1,0,26.31,26.31A26.34,26.34,0,0,0,95,6.26ZM92.54,42.1a3,3,0,0,1-2.17-.88l-7.83-7.83a3.3,3.3,0,0,1,0-4.5,3.43,3.43,0,0,1,2.3-.88,3.05,3.05,0,0,1,2.19.88l5.5,5.69,10.35-10.52a3.42,3.42,0,0,1,2.29-.87,3.05,3.05,0,0,1,2.19.88,3.3,3.3,0,0,1,0,4.5L94.71,41.22A3,3,0,0,1,92.54,42.1Z"/></svg>