<svg id="Layer_1" data-name="Layer 1" xmlns="http://www.w3.org/2000/svg" viewBox="0 0 135.28 139.68"><defs><style>.cls-1{fill:#6ce5df;}</style></defs><path class="cls-1" d="M38.37,139.68a8,8,0,0,1-7.95-8V93.66H25.05a25,25,0,0,1-4.21-49.72L23,43.58l-.6-2.1A32.55,32.55,0,0,1,81.31,15.34l1.16,1.86,1.71-1.36a19.17,19.17,0,0,1,10.17-4.1q1-.09,2-.09a21.06,21.06,0,0,1,12.87,4.43,18.81,18.81,0,0,1,7,14.28,24.55,24.55,0,0,1-2,11.08l-1,2.19,2.34.51a25,25,0,0,1-5.23,49.52h-5.4v38.08a8,8,0,0,1-8,7.94Zm-4.92-8a4.94,4.94,0,0,0,4.91,4.91H96.91a4.93,4.93,0,0,0,4.91-4.91V116.5H87.35a19.28,19.28,0,0,0,0-3h14.47V79.87H87.35a19.28,19.28,0,0,0,0-3h14.47V61.63a4.91,4.91,0,0,0-4.91-4.91H38.37a4.93,4.93,0,0,0-4.92,4.9V76.84H47.93a19.28,19.28,0,0,0,0,3H33.45v33.59H47.93a19.28,19.28,0,0,0,0,3H33.45Zm63.46-78a8,8,0,0,1,8,8v29h5.79a22,22,0,0,0-.2-44h-.21a1.94,1.94,0,0,1-.42-.07,1.62,1.62,0,0,1-.51-.24l-.07-.06a.58.58,0,0,1-.14-.13,1.74,1.74,0,0,1-.17-.23,1.45,1.45,0,0,1-.13-.28l0-.08a1.05,1.05,0,0,1,0-.19l0-.21h0v0a2.45,2.45,0,0,0,0-.27,1.42,1.42,0,0,0,.07-.22l0-.12.08-.17.18-.24a20.66,20.66,0,0,0,4-13.5,15.85,15.85,0,0,0-5.76-12,18,18,0,0,0-11.07-3.85c-.56,0-1.12,0-1.67.08a16.17,16.17,0,0,0-11.26,6.14l-.21.22-.15.14-.09.06-.21.11-.12,0h0l-.26.06H82.2l-.25,0-.16,0-.14,0-.14-.05-.12-.07-.2-.12-.06-.06L81,21l-.08-.11c-.05-.07-.15-.26-.17-.3l-.15-.34a29.61,29.61,0,0,0-27-17.43A29.56,29.56,0,0,0,26.66,44.5a1.54,1.54,0,0,1,.13.6,1.51,1.51,0,0,1-.45,1.08,1.56,1.56,0,0,1-1,.44l-.22,0a22,22,0,1,0-.11,44h5.37v-29a8,8,0,0,1,7.95-8H96.91Zm19.21,74.11a1.52,1.52,0,0,1,0-3H127V99q1.56-.87,3-1.89v29.15a1.52,1.52,0,0,1-1.52,1.52Zm-109.37,0a1.52,1.52,0,0,1-1.52-1.52V97.09a34.11,34.11,0,0,0,3,1.9v25.76h10.9a1.52,1.52,0,1,1,0,3Zm60.89-2.73A10.07,10.07,0,1,1,77.71,115,10.08,10.08,0,0,1,67.64,125.06Zm0-17.11a7,7,0,1,0,7,7A7,7,0,0,0,67.64,108Zm0-19.52A10.07,10.07,0,1,1,77.71,78.36,10.08,10.08,0,0,1,67.64,88.43Zm0-17.11a7,7,0,1,0,0,14.07,7,7,0,0,0,0-14.07Zm41.1-26.52h0Z"/></svg>