<svg xmlns="http://www.w3.org/2000/svg" width="589.661" height="146.395" viewBox="0 0 589.661 146.395">
  <g id="STEM_Logo-01" data-name="STEM Logo-01" transform="translate(0.143)">
    <g id="STEM" transform="translate(-0.142)">
      <g id="M" transform="translate(425.044 0.318)">
        <g id="Group_9" data-name="Group 9">
          <path id="Path_45" data-name="Path 45" d="M331.668,137.5c.081-18.888-16.83-35.1-34.064-34.32-10.5.455-21.058.08-31.614.054-23.589,0-47.205.08-70.794-.08-3.5-.027-4.659.964-4.5,4.474.269,6.108.108,12.27.135,18.406l30.725.08c11.9.027,15.672,3.724,15.672,15.432,0,24.728.054,49.484-.081,74.212-.027,3.269.808,4.474,4.228,4.26a106.506,106.506,0,0,1,14.326,0c4.012.295,5.251-.857,5.224-4.983-.189-25.425-.108-50.877-.081-76.3,0-2.92.108-5.867-.835-8.707-.943-2.867-.35-4.1,3.151-4.019,10.394.241,20.789.054,31.183.134,9.183.054,13.706,4.581,13.706,13.664,0,25.157.081,50.314-.081,75.471-.027,3.563.727,5.064,4.6,4.769a94.7,94.7,0,0,1,14.326,0c4.093.321,4.847-1.286,4.82-4.983Q331.52,176.277,331.668,137.5Z" transform="translate(-167.107 -103.15)" fill="#097f7f"/>
          <path id="Path_46" data-name="Path 46" d="M186.295,111.737c-3.2-.081-4.443.727-4.362,4.2.242,8.428.081,16.857.081,25.286,0,20.223.081,40.446-.081,60.669-.027,3.42,1.05,4.362,4.309,4.2a128,128,0,0,1,14.73.027c3.77.269,4.686-1.023,4.686-4.712-.135-29.89-.081-59.807-.054-89.7C199.166,111.737,192.73,111.925,186.295,111.737Z" transform="translate(-181.929 -89.256)" fill="#097f7f"/>
          <path id="Path_47" data-name="Path 47" d="M190.72,111.744h.054v-.054h-.054Z" transform="translate(-167.046 -88.693)" fill="#097f7f"/>
        </g>
      </g>
      <g id="E" transform="translate(280.983 0.049)">
        <path id="Path_48" data-name="Path 48" d="M151.576,139.681c.027-8.776,4.766-13.352,13.572-13.405,9.694-.053,19.388-.027,29.082-.027,15.753,0,31.479-.134,47.232.08,3.608.053,4.551-1.044,4.362-4.468A147.948,147.948,0,0,1,245.8,106.8c.135-2.97-.916-3.773-3.824-3.746-14.057.134-28.113.054-42.17.054q-18.338,0-36.676.027c-1.831,0-3.635.268-5.466.4-13.437,1.017-28.652,15.546-29,28.925-.539,20.362-.242,40.778-.35,61.167,0,2.141.727,2.943,2.935,2.917,5.466-.107,10.96-.241,16.453.054,3.312.161,3.958-1.044,3.932-4.067C151.5,174.894,151.522,157.287,151.576,139.681Z" transform="translate(-128.31 -103.05)" fill="#08f8c0"/>
        <path id="Path_49" data-name="Path 49" d="M226.2,137.952c-13.895.269-27.79.108-41.685.108-14.6,0-29.217.054-43.812-.054-2.693-.027-3.689.646-3.581,3.474.215,5.6.135,11.229.027,16.857-.027,2.208.4,3.258,2.989,3.258q43.785-.121,87.6,0c2.343,0,3.231-.7,3.151-3.124-.162-5.2-.269-10.394.027-15.564C231.131,139.218,230.27,137.871,226.2,137.952Z" transform="translate(-113.401 -44.57)" fill="#08f8c0"/>
        <path id="Path_50" data-name="Path 50" d="M149.21,144.164q31.627-.121,63.227,0c2.5,0,3.474-.592,3.366-3.285-.215-5.6-.189-11.256,0-16.857.108-2.747-.727-3.608-3.528-3.581-10.26.135-20.519.054-30.779.054-10.69,0-21.354.081-32.045-.054-2.5-.027-3.5.646-3.42,3.285.162,5.763.135,11.525,0,17.288C146.033,143.41,146.841,144.191,149.21,144.164Z" transform="translate(-98.316 -73.91)" fill="#08f8c0"/>
      </g>
      <g id="T" transform="translate(144.094)">
        <g id="Group_12" data-name="Group 12">
          <path id="Path_51" data-name="Path 51" d="M148.135,173.65V153.5c0-6.725-.162-13.423.027-20.147.458-16.557-14-30.408-30.106-29.953-12.333.348-24.72.536-37.08-.348-2.531-.188-3.608.8-3.555,3.349.081,5.465.162,10.9-.027,16.37-.108,2.84,1,3.59,3.689,3.536,8-.134,16.022-.161,24.047-.027,11.956.188,19.415,7.716,19.415,19.531.027,23.362.054,46.7-.054,70.06-.027,3.215.754,4.5,4.2,4.287a123.266,123.266,0,0,1,14.757,0c3.635.214,4.847-.777,4.793-4.581C148,201.62,148.135,187.635,148.135,173.65Z" transform="translate(-77.387 -103.032)" fill="#097f7f"/>
          <path id="Path_52" data-name="Path 52" d="M130.143,103.183c-2.935.108-5.9.027-8.832.027v.081c-3.1,0-6.167.054-9.263-.027-1.966-.054-2.774.727-2.747,2.72q.081,8.846,0,17.692c-.027,1.777.727,2.531,2.5,2.5,6.167-.054,12.36-.054,18.527,0,1.939.027,2.774-.727,2.747-2.72-.054-5.763-.081-11.525,0-17.261C133.132,104.045,132.351,103.1,130.143,103.183Z" transform="translate(-23.366 -102.784)" fill="#097f7f"/>
        </g>
      </g>
      <g id="S" transform="translate(0 0.022)">
        <path id="Path_53" data-name="Path 53" d="M141.282,154.908c.108-4.179-.942-5.331-5.278-5.3-29.513.161-59,.027-88.513-.027a1.113,1.113,0,0,0-.162-.723c.054-3.081.108-6.135.135-9.216.027-8.52,4.551-13.208,13.168-13.315,6.894-.08,13.76-.027,20.654-.027,18.554,0,37.08-.107,55.634.08,3.581.027,4.551-1.018,4.362-4.447a148.325,148.325,0,0,1,0-15.084c.135-2.893-.754-3.8-3.743-3.8-26.255.107-52.537,0-78.792.08-11.364.027-20.573,4.528-27.305,13.8l-.027.027c-5.251,5.573-7.324,12.431-7.432,19.826-.188,10.475.135,20.978-.162,31.453-.108,3.938.808,5.144,4.982,5.117,28.248-.214,56.5-.027,84.716-.214,3.878-.027,4.793,1.179,4.578,4.742-.269,4.313-.081,8.654-.081,12.994,0,5.814,0,5.814-5.736,5.814-27.951,0-55.93.08-83.881-.08-3.8-.027-4.82.991-4.578,4.635.323,5.144.188,10.341.027,15.512-.081,2.492.619,3.376,3.285,3.376q43.826-.121,87.678,0c2.774,0,3.285-1.1,3.231-3.456-.108-5.6.081-11.172-.081-16.771-.081-2.492.646-3.483,3.285-3.376,5.2.188,10.394-.161,15.591.134,3.474.188,4.551-.857,4.5-4.394C141.066,179.8,140.986,167.339,141.282,154.908Z" transform="translate(-23.788 -103.04)" fill="#08f8c0"/>
      </g>
    </g>
    <g id="Expansion" transform="translate(-24.592 -26.919)">
      <path id="Path_64" data-name="Path 64" d="M26.994,167.72a3.744,3.744,0,0,0,4.033,3.411c2.193,0,3.519-1.083,3.519-3,0-1.976-.974-2.815-4.114-3.79-3.952-1.191-5.441-2.517-5.441-5.17,0-3.032,2.328-4.926,5.793-4.926,4.087,0,5.82,2.355,6.009,5.035H34.249A3.172,3.172,0,0,0,30.73,156.3c-2.084,0-3.113,1-3.113,2.626,0,1.678.947,2.3,3.871,3.167,4.6,1.38,5.739,3.167,5.739,5.738,0,3.059-2.111,5.387-6.307,5.387-3.9,0-6.226-2.057-6.469-5.495h2.544Z" transform="translate(0 0.017)" fill="#1a0a48"/>
      <path id="Path_65" data-name="Path 65" d="M44.959,167.548a6.526,6.526,0,0,1-6.93,5.739c-5.495,0-7.579-4.141-7.579-9.636,0-4.954,2.409-9.42,7.715-9.42,4.412,0,6.388,2.707,6.713,5.793H42.306c-.46-2.057-1.516-3.627-4.223-3.627-3.546,0-4.954,3.465-4.954,7.281s1.137,7.5,4.981,7.5c2.707,0,3.763-1.651,4.3-3.6h2.544Z" transform="translate(10.241 0)" fill="#1a0a48"/>
      <path id="Path_66" data-name="Path 66" d="M39.932,154.33v18.542H37.36V154.33Z" transform="translate(22.035 0.171)" fill="#1a0a48"/>
      <path id="Path_67" data-name="Path 67" d="M51.21,164.254H42.927V170.7h9.122l-.325,2.165H40.41V154.32H51.616v2.193H42.954v5.549h8.283v2.193Z" transform="translate(27.241 0.154)" fill="#1a0a48"/>
      <path id="Path_68" data-name="Path 68" d="M46.21,172.872V154.33h3.384c7.038,12.8,8.012,14.59,8.337,15.429h.027c-.162-2.409-.189-5.414-.189-8.418v-6.984h2.409V172.9H57.01c-7.525-13.913-8.121-15.131-8.5-15.889h-.027c.135,2.382.108,5.522.108,8.824V172.9H46.21Z" transform="translate(37.141 0.171)" fill="#1a0a48"/>
      <path id="Path_69" data-name="Path 69" d="M67.629,167.548a6.526,6.526,0,0,1-6.93,5.739c-5.495,0-7.579-4.141-7.579-9.636,0-4.954,2.409-9.42,7.715-9.42,4.412,0,6.388,2.707,6.713,5.793H64.976c-.46-2.057-1.516-3.627-4.223-3.627-3.546,0-4.954,3.465-4.954,7.281s1.137,7.5,4.981,7.5c2.707,0,3.763-1.651,4.3-3.6h2.544Z" transform="translate(48.935 0)" fill="#1a0a48"/>
      <path id="Path_70" data-name="Path 70" d="M70.83,164.254H62.547V170.7h9.122l-.325,2.165H60.03V154.32H71.236v2.193H62.574v5.549h8.283v2.193Z" transform="translate(60.73 0.154)" fill="#1a0a48"/>
      <path id="Path_71" data-name="Path 71" d="M73.39,156.523H68.03V154.33H81.348v2.193h-5.36v16.349h-2.6Z" transform="translate(74.384 0.171)" fill="#1a0a48"/>
      <path id="Path_72" data-name="Path 72" d="M85.08,164.254H76.8V170.7h9.122l-.325,2.165H74.28V154.32H85.486v2.193H76.824v5.549h8.283v2.193Z" transform="translate(85.052 0.154)" fill="#1a0a48"/>
      <path id="Path_73" data-name="Path 73" d="M94.349,167.548a6.526,6.526,0,0,1-6.93,5.739c-5.495,0-7.579-4.141-7.579-9.636,0-4.954,2.409-9.42,7.715-9.42,4.412,0,6.388,2.707,6.713,5.793H91.7c-.46-2.057-1.516-3.627-4.223-3.627-3.546,0-4.954,3.465-4.954,7.281s1.137,7.5,4.981,7.5c2.707,0,3.763-1.651,4.3-3.6h2.544Z" transform="translate(94.542 0)" fill="#1a0a48"/>
      <path id="Path_74" data-name="Path 74" d="M86.74,154.33h2.571v7.715h8.31V154.33h2.6v18.542h-2.6v-8.635h-8.31v8.635H86.74Z" transform="translate(106.32 0.171)" fill="#1a0a48"/>
      <path id="Path_75" data-name="Path 75" d="M93.81,172.872V154.33h3.384c7.038,12.8,8.012,14.59,8.337,15.429h.027c-.162-2.409-.189-5.414-.189-8.418v-6.984h2.409V172.9H104.61c-7.525-13.913-8.121-15.131-8.5-15.889h-.027c.135,2.382.108,5.522.108,8.824V172.9H93.81Z" transform="translate(118.387 0.171)" fill="#1a0a48"/>
      <path id="Path_76" data-name="Path 76" d="M116.528,163.65c0,5.333-2.49,9.636-8.012,9.636-5.224,0-7.8-4.141-7.8-9.636,0-4.791,2.517-9.42,8.012-9.42C113.956,154.23,116.528,158.371,116.528,163.65Zm-13.128-.027c0,4.223,1.705,7.525,5.251,7.525,3.708,0,5.224-3.221,5.224-7.5,0-4.087-1.57-7.281-5.224-7.281S103.4,159.617,103.4,163.623Z" transform="translate(130.181 0)" fill="#1a0a48"/>
      <path id="Path_77" data-name="Path 77" d="M108.317,154.33h2.571v16.349h8.8l-.352,2.165H108.29V154.33Z" transform="translate(143.102 0.171)" fill="#1a0a48"/>
      <path id="Path_78" data-name="Path 78" d="M129.108,163.65c0,5.333-2.49,9.636-8.012,9.636-5.224,0-7.8-4.141-7.8-9.636,0-4.791,2.517-9.42,8.012-9.42C126.536,154.23,129.108,158.371,129.108,163.65Zm-13.128-.027c0,4.223,1.705,7.525,5.251,7.525,3.708,0,5.224-3.221,5.224-7.5,0-4.087-1.57-7.281-5.224-7.281S115.98,159.617,115.98,163.623Z" transform="translate(151.654 0)" fill="#1a0a48"/>
      <path id="Path_79" data-name="Path 79" d="M135.346,173.026H133.37a15.541,15.541,0,0,1-.217-2.572c-.974,2.057-2.788,2.842-5.387,2.842-4.845,0-7.227-4.114-7.227-9.447,0-5.36,2.842-9.609,8.066-9.609,4.033,0,6.253,2.165,6.767,5.414h-2.544a4.054,4.054,0,0,0-4.358-3.248c-3.708,0-5.278,3.329-5.278,7.471,0,3.9,1.489,7.281,5.062,7.281,3.735,0,4.548-2.6,4.548-5.82v-.108h-4.629v-2.247h7.173C135.346,166.448,135.346,172.7,135.346,173.026Z" transform="translate(164.011 0.017)" fill="#1a0a48"/>
      <path id="Path_80" data-name="Path 80" d="M133.015,172.872v-7.254a1.037,1.037,0,0,0-.135-.514L126.87,154.33h2.923c1.489,2.9,3.844,7.227,4.629,8.743,1.38-2.68,3.194-5.982,4.656-8.743h2.734l-6.09,10.8a.868.868,0,0,0-.108.487V172.9h-2.6Z" transform="translate(174.816 0.171)" fill="#1a0a48"/>
      <path id="Path_81" data-name="Path 81" d="M152.356,161.657l-4.439,6.686c-2.3,3.438-3.519,4.926-6.659,4.926a4.948,4.948,0,0,1-5.278-5.062c0-2.274,1.326-4.006,4.737-5.766,2.815-1.516,3.708-2.49,3.708-4.006a2.223,2.223,0,1,0-4.439.081c0,1.191.6,2.084,1.976,3.438l11.369,11.071H149.92L139.9,163.118c-1.462-1.516-2.274-2.788-2.274-4.52a4.285,4.285,0,0,1,4.6-4.358,4.1,4.1,0,0,1,4.412,4.169c0,2.409-1.489,3.681-4.466,5.305-2.842,1.57-3.681,2.68-3.681,4.331a2.842,2.842,0,0,0,2.95,2.95c2.111,0,3.059-1.218,4.683-3.762l3.573-5.576h2.653Z" transform="translate(190.365 0.017)" fill="#1a0a48"/>
      <path id="Path_82" data-name="Path 82" d="M157.4,164.254h-8.283V170.7h9.122l-.352,2.165H146.57V154.32h11.179v2.193h-8.662v5.549h8.283v2.193Z" transform="translate(208.44 0.154)" fill="#1a0a48"/>
      <path id="Path_83" data-name="Path 83" d="M157.25,156.523h-5.36V154.33h13.318v2.193h-5.36v16.349h-2.6Z" transform="translate(217.521 0.171)" fill="#1a0a48"/>
      <path id="Path_84" data-name="Path 84" d="M158.14,154.33h2.571v7.715h8.31V154.33h2.6v18.542h-2.6v-8.635h-8.31v8.635H158.14Z" transform="translate(228.189 0.171)" fill="#1a0a48"/>
      <path id="Path_85" data-name="Path 85" d="M167.782,154.33v18.542H165.21V154.33Z" transform="translate(240.256 0.171)" fill="#1a0a48"/>
      <path id="Path_86" data-name="Path 86" d="M182.409,167.548a6.526,6.526,0,0,1-6.93,5.739c-5.495,0-7.579-4.141-7.579-9.636,0-4.954,2.409-9.42,7.715-9.42,4.412,0,6.388,2.707,6.713,5.793h-2.572c-.46-2.057-1.516-3.627-4.223-3.627-3.546,0-4.954,3.465-4.954,7.281s1.137,7.5,4.981,7.5c2.707,0,3.763-1.651,4.3-3.6h2.544Z" transform="translate(244.848 0)" fill="#1a0a48"/>
      <path id="Path_87" data-name="Path 87" d="M177.014,167.72a3.744,3.744,0,0,0,4.033,3.411c2.193,0,3.519-1.083,3.519-3,0-1.976-.974-2.815-4.114-3.79-3.952-1.191-5.441-2.517-5.441-5.17,0-3.032,2.328-4.926,5.793-4.926,4.087,0,5.82,2.355,6.009,5.035h-2.544a3.172,3.172,0,0,0-3.519-2.978c-2.084,0-3.113,1-3.113,2.626,0,1.678.947,2.3,3.871,3.167,4.6,1.38,5.738,3.167,5.738,5.738,0,3.059-2.111,5.387-6.307,5.387-3.9,0-6.226-2.057-6.469-5.495h2.544Z" transform="translate(256.062 0.017)" fill="#1a0a48"/>
      <path id="Path_88" data-name="Path 88" d="M186.1,154.33v18.542H183.53V154.33Z" transform="translate(271.526 0.171)" fill="#1a0a48"/>
      <path id="Path_89" data-name="Path 89" d="M186.58,172.872V154.33h3.384c7.038,12.8,8.012,14.59,8.337,15.429h.027c-.162-2.409-.189-5.414-.189-8.418v-6.984h2.409V172.9H197.38c-7.525-13.913-8.121-15.131-8.5-15.889h-.027c.135,2.382.108,5.522.108,8.824V172.9H186.58Z" transform="translate(276.732 0.171)" fill="#1a0a48"/>
      <path id="Path_90" data-name="Path 90" d="M211.623,165.174c0-3.384.027-6.957.108-8.933h-.081c-.866,3.438-3.519,11.342-5.387,16.647h-2.355c-1.38-4.439-4.141-13.1-5.008-16.7h-.108c.135,2.138.217,6.253.217,9.447v7.227H196.6V154.32h3.871c1.814,5.278,4.141,12.614,4.764,15.24h.027c.379-1.895,3.194-9.934,5.089-15.24h3.763v18.542H211.6v-7.687Z" transform="translate(293.834 0.154)" fill="#1a0a48"/>
      <path id="Path_91" data-name="Path 91" d="M216,164.254h-8.283V170.7h9.122l-.352,2.165H205.17V154.32h11.179v2.193h-8.662v5.549h8.283v2.193Z" transform="translate(308.462 0.154)" fill="#1a0a48"/>
      <path id="Path_92" data-name="Path 92" d="M210.98,154.33H217.1c4.845,0,8.364,3.086,8.364,8.824,0,6.063-3.167,9.691-8.635,9.691H210.98V154.33Zm2.6,16.431h3.167c4.06,0,6.036-2.815,6.036-7.525,0-4.331-2.328-6.767-6.009-6.767h-3.194Z" transform="translate(318.379 0.171)" fill="#1a0a48"/>
      <path id="Path_93" data-name="Path 93" d="M220.641,154.33v18.542H218.07V154.33Z" transform="translate(330.48 0.171)" fill="#1a0a48"/>
      <path id="Path_94" data-name="Path 94" d="M235.269,167.548a6.526,6.526,0,0,1-6.93,5.739c-5.495,0-7.579-4.141-7.579-9.636,0-4.954,2.409-9.42,7.715-9.42,4.412,0,6.388,2.707,6.713,5.793h-2.572c-.46-2.057-1.516-3.627-4.223-3.627-3.546,0-4.954,3.465-4.954,7.281s1.137,7.5,4.981,7.5c2.707,0,3.763-1.651,4.3-3.6h2.544Z" transform="translate(335.072 0)" fill="#1a0a48"/>
      <path id="Path_95" data-name="Path 95" d="M230.242,154.33v18.542H227.67V154.33Z" transform="translate(346.866 0.171)" fill="#1a0a48"/>
      <path id="Path_96" data-name="Path 96" d="M230.72,172.872V154.33H234.1c7.038,12.8,8.012,14.59,8.337,15.429h.027c-.162-2.409-.19-5.414-.19-8.418v-6.984h2.409V172.9H241.52c-7.525-13.913-8.121-15.131-8.5-15.889h-.027c.135,2.382.108,5.522.108,8.824V172.9H230.72Z" transform="translate(352.072 0.171)" fill="#1a0a48"/>
      <path id="Path_97" data-name="Path 97" d="M248.807,164.254h-8.283V170.7h9.122l-.352,2.165H237.98V154.32h11.179v2.193H240.5v5.549h8.283v2.193Z" transform="translate(364.464 0.154)" fill="#1a0a48"/>
    </g>
  </g>
</svg>
