<svg id="Layer_1" data-name="Layer 1" xmlns="http://www.w3.org/2000/svg" viewBox="0 0 102.35 139.68"><defs><style>.cls-1{fill:#6ce5df;}</style></defs><path class="cls-1" d="M14.34,139.68A14.35,14.35,0,0,1,0,125.34V21.73A14.36,14.36,0,0,1,14.34,7.38H25.42V1.64A1.65,1.65,0,0,1,27.06,0H75.28a1.65,1.65,0,0,1,1.64,1.64V7.38H88a14.37,14.37,0,0,1,14.35,14.35V125.34A14.36,14.36,0,0,1,88,139.68Zm0-129A11.08,11.08,0,0,0,3.28,21.73V125.34A11.07,11.07,0,0,0,14.34,136.4H88a11.08,11.08,0,0,0,11.07-11.06V21.73A11.09,11.09,0,0,0,88,10.66H76.92V16.4A1.63,1.63,0,0,1,75.28,18H27.06a1.64,1.64,0,0,1-1.64-1.64V10.66Zm14.36,4.1H73.64V3.28H28.7ZM22.14,115.45A1.64,1.64,0,0,1,21,115l-3.4-3.38a1.63,1.63,0,0,1,2.3-2.31l2.2,2.19,7.06-7.63a1.58,1.58,0,0,1,1.19-.52,1.62,1.62,0,0,1,1.19,2.72l-8.27,9A1.6,1.6,0,0,1,22.14,115.45ZM50,110.29A1.64,1.64,0,0,1,50,107H83.6a1.64,1.64,0,0,1,0,3.28ZM22.14,91.55A1.59,1.59,0,0,1,21,91.08l-3.4-3.37a1.63,1.63,0,0,1,2.3-2.32l2.2,2.19L29.15,80a1.62,1.62,0,0,1,1.19-.52A1.62,1.62,0,0,1,32,81a1.64,1.64,0,0,1-.43,1.17l-8.27,9A1.6,1.6,0,0,1,22.14,91.55ZM50,86.39a1.64,1.64,0,1,1,0-3.28H83.6a1.64,1.64,0,0,1,0,3.28ZM22.14,67.66A1.6,1.6,0,0,1,21,67.18l-3.4-3.37a1.63,1.63,0,0,1,0-2.3A1.64,1.64,0,0,1,18.74,61a1.6,1.6,0,0,1,1.15.48l2.2,2.18,7.06-7.63a1.62,1.62,0,0,1,1.19-.52A1.62,1.62,0,0,1,32,57.09a1.62,1.62,0,0,1-.43,1.17l-8.27,8.95A1.6,1.6,0,0,1,22.14,67.66ZM50,62.49a1.64,1.64,0,0,1,0-3.28H83.6a1.64,1.64,0,0,1,0,3.28ZM22.14,43.75A1.59,1.59,0,0,1,21,43.28l-3.4-3.37a1.63,1.63,0,0,1,1.15-2.79,1.6,1.6,0,0,1,1.15.48l2.2,2.18,7.06-7.63a1.62,1.62,0,0,1,1.19-.52,1.63,1.63,0,0,1,1.19,2.73l-8.27,9A1.6,1.6,0,0,1,22.14,43.75ZM50,38.59a1.64,1.64,0,1,1,0-3.28H83.6a1.64,1.64,0,0,1,0,3.28Z"/></svg>