<svg id="Layer_1" data-name="Layer 1" xmlns="http://www.w3.org/2000/svg" viewBox="0 0 141.67 139.68"><defs><style>.cls-1{fill:#6ce5df;}</style></defs><path class="cls-1" d="M29.24,139.68a1.55,1.55,0,0,1-1.53-1.34l-.92-7-11.92-.75A1.55,1.55,0,0,1,13.42,129l4.18-67.6L13.09,27a1.54,1.54,0,0,1,1.32-1.74l5.46-.72.67-10.87a1.48,1.48,0,0,1,.52-1.06,1.46,1.46,0,0,1,1-.4l19.8,1.22.25-.2a8.58,8.58,0,0,1,4.23-1.81L49.63,11l0-.69A11.1,11.1,0,0,1,71.25,7.48l.23.65,3.29-.43a8.66,8.66,0,0,1,9.77,7.5l.11.83,24.52-3.21h.2a1.55,1.55,0,0,1,1.53,1.35l.47,3.59,14.84.92a1.5,1.5,0,0,1,1.06.52,1.53,1.53,0,0,1,.39,1.12l-5.11,82.58,3,22.59a1.55,1.55,0,0,1-1.34,1.74l-3.16.42-.49,7.93A1.56,1.56,0,0,1,119,137h-.15l-47.1-2.91-42.31,5.56ZM16.38,28.13l14.2,108.26,91.68-12L108.05,16.09l-23,3,1,7.94a1.55,1.55,0,0,1-1.33,1.74l-42.64,5.6h-.21a1.55,1.55,0,0,1-1.53-1.35l-1-7.94ZM96.47,130.87l.06,1.67,21,1.3.35-5.79ZM19.17,86.11l-2.56,41.48,9.77.61L20.84,86.05Zm100.15-7.94,1.67-.06,3.49-56.46-12.69-.78ZM75.9,10.72a6.11,6.11,0,0,0-.73,0L46.75,14.5a5.61,5.61,0,0,0-4.84,6.31l1.35,10.3,39.55-5.19L81.46,15.61A5.63,5.63,0,0,0,75.9,10.72ZM23,24.13,38.94,22l-.1-.83a8.59,8.59,0,0,1,.36-3.77l.34-1-16-1Zm37.76-21a7.55,7.55,0,0,0-1.06.07A8,8,0,0,0,54.4,6.22a8.23,8.23,0,0,0-1.48,3.22l-.24,1.16L68.44,8.53,67.9,7.47a8,8,0,0,0-7.12-4.38Zm-23,120.3,31.5-4.12.41,3.07-31.5,4.12Zm42.64-5.59,31.5-4.14.4,3.07-31.5,4.14Zm-43.89-3.94L68,109.72l.4,3.08L37,116.93Zm102-1.57V90.08h3.1v22.21Zm-59.39-4,31.5-4.14.4,3.08-31.5,4.13Zm-43.87-3.82,31.5-4.13.4,3.07-31.5,4.14Zm93.7.68V97.25h3.1v7.87Zm-49.33-3.39a1.54,1.54,0,0,1-1.53-1.35l-2.5-19A1.55,1.55,0,0,1,77,79.63l28.43-3.73h.21a1.55,1.55,0,0,1,1.53,1.35l2.5,19a1.47,1.47,0,0,1-.31,1.14,1.57,1.57,0,0,1-1,.6l-28.43,3.73ZM78.92,82.5,81,98.44l25.35-3.32-2.09-15.94ZM34.06,95l31.5-4.14.4,3.08L34.47,98Zm-1.25-9.54,31.5-4.13.4,3.08L33.21,88.5Zm10.54-8.55A14.25,14.25,0,0,1,41.51,48.5h.19a1.55,1.55,0,0,1,.95.32,1.5,1.5,0,0,1,.59,1L44.69,60.9l11.05-1.45h.2a1.55,1.55,0,0,1,1.54,1.34A14.25,14.25,0,0,1,43.6,76.88Zm-9-20.8a11.15,11.15,0,0,0,9,17.71,12.25,12.25,0,0,0,1.48-.09,11.13,11.13,0,0,0,9.63-9.9l.12-1.06-11,1.44-.19,0a1.62,1.62,0,0,1-1-.33,1.57,1.57,0,0,1-.59-1l-1.44-11-1,.38a11.1,11.1,0,0,0-4.89,3.63l-.17.23ZM74.21,70.42l31.5-4.14.4,3.08L74.62,73.49ZM73,61l31.5-4.14.4,3.07L73.37,64ZM50.18,55.58a1.55,1.55,0,0,1-1.54-1.34L47,41.64a1.55,1.55,0,0,1,1.33-1.74,14.68,14.68,0,0,1,1.87-.12A14.28,14.28,0,0,1,64.3,52.18,1.55,1.55,0,0,1,63,53.92L50.38,55.57Zm1.33-3.28L61,51.06l-.37-1a11.18,11.18,0,0,0-9.27-7.14l-1.06-.11Zm20.22-.83,31.49-4.14.41,3.08-31.5,4.13ZM70.5,42.19,102,38.06l.41,3.07-31.5,4.13ZM0,23.89V1.68H3.1V23.89Zm9.56-7.17V8.85h3.1v7.87Z"/></svg>