<svg id="Layer_1" data-name="Layer 1" xmlns="http://www.w3.org/2000/svg" viewBox="0 0 131.39 139.68"><defs><style>.cls-1{fill:#6ce5df;}</style></defs><path class="cls-1" d="M69.47,139.68c-24.94-15-40.57-30-52.16-50.11S.53,48.45,0,19.35H31.71L35.81,49l-8.06,5.31L28,55A117.65,117.65,0,0,0,38,77.63a116.81,116.81,0,0,0,14.58,20l.46.5,8.63-4.32,23.63,18.38Zm-63-114.1,0,.94C7.62,50.52,12.63,69,22.7,86.45S46.29,117.5,66.5,130.5l.79.51,9.94-17.21L61,101.16l-9.35,4.69-3.64-4A123.49,123.49,0,0,1,32.64,80.74,125.13,125.13,0,0,1,22,56.89l-1.67-5.16L29.1,46,26.28,25.58Zm84.13,83.21a52.93,52.93,0,0,0,34.52-45.65l.07-1H117.9V56h7.24l-.07-1a52.9,52.9,0,0,0-48.7-48.7l-1-.08V13.5H69.23V6.25l-1,.08A52.48,52.48,0,0,0,38.21,18.61l-4-4.63A59.08,59.08,0,1,1,92.57,114.6ZM67.8,60.54,69.49,25.8h5.64l1.55,31.81,15.49,18-3.91,4.08Z"/></svg>