<svg id="Layer_1" data-name="Layer 1" xmlns="http://www.w3.org/2000/svg" viewBox="0 0 200.77 139.68"><defs><style>.cls-1{fill:#6ce5df;}</style></defs><path class="cls-1" d="M179.85,139.68v-3.94h20.92v3.94Zm-21.78-6.78a12.16,12.16,0,1,1,12.16-12.16A12.17,12.17,0,0,1,158.07,132.9Zm0-20.36a8.21,8.21,0,1,0,8.21,8.2A8.22,8.22,0,0,0,158.07,112.54Zm21.78,13.57v-4h20.92v4ZM0,122.72v-99H50.9V17h71.82V122.72Zm54.85-4h63.92V20.91H54.85Zm-17,0h13v-9.63h-13ZM4,118.77h30v-9.63H4ZM37.88,105.2h13V95.57h-13ZM4,105.2h30V95.57H4ZM37.88,91.62h13V82h-13ZM4,91.62h30V82H4Zm20.1-62.7A22.48,22.48,0,0,1,5.16,47.81L4,48v9.79l1.21.17A22.48,22.48,0,0,1,24.05,76.83l.18,1.22H50.9V61.64H42.69a8.77,8.77,0,0,1,0-17.53H50.9V27.7H24.23ZM4,78.05H20.34L20,76.34A18.41,18.41,0,0,0,5.65,62L4,61.65Zm38.74-30a4.82,4.82,0,0,0,0,9.63H50.9V48.06ZM4,44.1l1.7-.35A18.41,18.41,0,0,0,20,29.41l.35-1.71H4Zm175.9,68.44v-4h20.92v4Zm-47.51,0v-4h3.95v4Zm-40.72-3.4V105.2H105.2V91.62h3.94v17.52Zm-13.57,0V105.2h4v3.94Zm-13.57,0V105.2h3.94v3.94ZM91.62,95.57V91.62h3.95v3.95Zm-13.57,0V91.62h4v3.95Zm-13.57,0V91.62h3.94v3.95ZM179.85,85.39v-4h20.92v4ZM105.2,82v-4h3.94v4ZM91.62,82v-4h3.95v4ZM78.05,82v-4h4v4ZM64.48,82v-4h3.94v4Zm93.59-3.4a12.16,12.16,0,1,1,12.16-12.15A12.16,12.16,0,0,1,158.07,78.6Zm0-20.36a8.21,8.21,0,1,0,8.21,8.21A8.22,8.22,0,0,0,158.07,58.24Zm21.78,13.58V67.87h20.92v3.95ZM132.34,61.64v-4h3.95v4Zm-67.86,0V30.54h44.66v31.1Zm3.94-4H105.2V34.49H68.42Zm111.43.55v-4h20.92v4Zm0-27.15V27.15h20.92v3.94Zm-21.78-6.78a12.16,12.16,0,1,1,12.16-12.16A12.17,12.17,0,0,1,158.07,24.31Zm0-20.36a8.21,8.21,0,1,0,8.21,8.2A8.22,8.22,0,0,0,158.07,4Zm21.78,13.57V13.57h20.92v3.95Zm0-13.57V0h20.92V4ZM132.34,4V0h3.95V4Z"/></svg>